<?xml version="1.0" encoding="utf-8"?>
<!-- Generator: Adobe Illustrator 21.0.0, SVG Export Plug-In . SVG Version: 6.00 Build 0)  -->
<svg version="1.1" id="Capa_1" xmlns="http://www.w3.org/2000/svg" xmlns:xlink="http://www.w3.org/1999/xlink" x="0px" y="0px"
	 viewBox="0 0 592 350" style="enable-background:new 0 0 592 350;" xml:space="preserve">
<style type="text/css">
	.st0{fill:#32323B;}
	.st1{fill:url(#SVGID_1_);}
	.st2{fill:url(#SVGID_2_);}
</style>
<path class="st0" d="M592,0v350H0V93c13.8-10.8,28.6-20.3,44.2-28.4c44.9-23.6,96.2-36.2,150-36.2c39.4,0,80.1,6.8,120.6,21
	C454.6,98.4,592,0,592,0z"/>
<linearGradient id="SVGID_1_" gradientUnits="userSpaceOnUse" x1="330.6045" y1="-69.7505" x2="589.5321" y2="249.9984" gradientTransform="matrix(1 0 0 -1 0 352)">
	<stop  offset="0" style="stop-color:#32323B"/>
	<stop  offset="0.6178" style="stop-color:#37373F"/>
	<stop  offset="1" style="stop-color:#3D3D45"/>
</linearGradient>
<path class="st1" d="M592,104v246H242c-17.3-76.6,52.5-147.9,122.5-167.2c78.7-21.6,150.5,52.1,182.5-18
	C559.9,136.7,575.3,117.1,592,104z"/>
<linearGradient id="SVGID_2_" gradientUnits="userSpaceOnUse" x1="45.8824" y1="220.5835" x2="100.5518" y2="74.6535">
	<stop  offset="0" style="stop-color:#32323B"/>
	<stop  offset="0.6178" style="stop-color:#37373F"/>
	<stop  offset="1" style="stop-color:#3D3D45"/>
</linearGradient>
<path class="st2" d="M150.1,190.7c-20.1,34.8-78.6,38.6-130.5,8.6c-7-4-13.6-8.5-19.6-13.2V93c13.8-10.8,28.6-20.3,44.2-28.4
	c15.7-2.7,32.3-0.2,47.2,8.3c0.3,0.1,0.5,0.3,0.7,0.4C144.2,103.4,170,155.9,150.1,190.7z"/>
</svg>
