<?xml version="1.0" encoding="utf-8"?>
<!-- Generator: Adobe Illustrator 21.0.0, SVG Export Plug-In . SVG Version: 6.00 Build 0)  -->
<svg version="1.1" xmlns="http://www.w3.org/2000/svg" xmlns:xlink="http://www.w3.org/1999/xlink" x="0px" y="0px"
	 viewBox="0 0 592 350" style="enable-background:new 0 0 592 350;" xml:space="preserve">
<style type="text/css">
	.st0{fill:#FFFFFF;}
	.st1{fill:#F8F9FA;}
</style>
<g id="Capa_5">
	<rect class="st0" width="592" height="349.6"/>
</g>
<g id="Capa_6">
	<path class="st1" d="M263.3,279c15.2,22.5,11.4,52.7-8.9,70.6H0V0h119c13.1,7.1,22,21,22,37c0,7.7,5.8,22.9,15.7,30.6
		c10.7,8.3,27.7,7.1,41.3,6.7C230,73.5,266.7,89.8,274,122c7.7,34.1-8.8,58.3-21.5,71.3c-11,11.2-16.8,26.5-15.1,42.1
		c0.6,5.6,2,10.9,4.8,14.7l18,24.5C261.1,275.8,262.2,277.3,263.3,279z"/>
</g>
</svg>
