<?xml version="1.0" encoding="utf-8"?>
<!-- Generator: Adobe Illustrator 21.0.0, SVG Export Plug-In . SVG Version: 6.00 Build 0)  -->
<svg version="1.1" id="Capa_1" xmlns="http://www.w3.org/2000/svg" xmlns:xlink="http://www.w3.org/1999/xlink" x="0px" y="0px"
	 viewBox="0 0 674.8 261.4" style="enable-background:new 0 0 674.8 261.4;" xml:space="preserve">
<style type="text/css">
	.st0{fill:#EBF5FC;}
	.st1{fill:#BFE0F5;}
	.st2{clip-path:url(#SVGID_2_);}
	.st3{fill:#FFFFFF;}
	.st4{fill:#AEE395;}
	.st5{clip-path:url(#SVGID_4_);}
	.st6{fill:#9CCFF0;}
	.st7{fill:#444444;}
	.st8{fill:#FAFAFC;}
	.st9{display:none;fill:#2E2E73;}
	.st10{clip-path:url(#SVGID_6_);}
	.st11{clip-path:url(#SVGID_8_);}
	.st12{clip-path:url(#SVGID_10_);}
	.st13{clip-path:url(#SVGID_12_);}
	.st14{fill:#2E2E73;}
	.st15{fill:#494949;}
	.st16{clip-path:url(#SVGID_14_);}
</style>
<g>
	<path class="st0" d="M356,158L356,158c0,8.1-6.6,14.7-14.7,14.7l0,0h-30.1c-6.8,0.2-12.2,5.8-12,12.6c0.2,6.5,5.4,11.8,11.9,12
		l57.4,0.4c8,0.2,14.2,6.9,14,14.8c-0.2,7.7-6.4,13.8-14.1,14H346c-13.7,0-24.8,11.1-24.8,24.8v10.1h-165c0-12.9-10.4-24-23.3-24
		h-29.3c-8.7,0.2-16-6.7-16.2-15.4c-0.2-8.7,6.7-16,15.4-16.2c0.3,0,0.5,0,0.8,0h49.1c8.1,0,14.6-6.5,14.6-14.6
		c0-8.1-6.5-14.6-14.6-14.6h-23.2c-9.2,0.2-16.8-7-17-16.2c-0.2-9.2,7-16.8,16.2-17c0.3,0,0.5,0,0.8,0h211.8
		C349.5,143.3,356,149.9,356,158"/>
	<path class="st0" d="M555.7,158L555.7,158c0,8.1-6.5,14.7-14.6,14.7c0,0,0,0,0,0h-30.1c-6.8,0.2-12.2,5.8-12,12.6
		c0.2,6.5,5.4,11.8,11.9,12l57.4,0.4c8,0.2,14.2,6.9,14,14.8c-0.2,7.7-6.4,13.8-14.1,14h-22.4c-13.7,0-24.7,11.1-24.7,24.8v10.1H356
		c0-12.9-10.4-24-23.3-24h-29.4c-8.7-0.2-15.7-7.5-15.4-16.2c0.2-8.4,7-15.2,15.4-15.4h49.1c8.1,0,14.6-6.5,14.6-14.6
		c0-8.1-6.5-14.6-14.6-14.6h-23.2c-9.2,0.2-16.8-7-17-16.2c-0.2-9.2,7-16.8,16.2-17c0.3,0,0.5,0,0.8,0H541
		C549.1,143.3,555.7,149.9,555.7,158"/>
	<path class="st1" d="M167.6,131L167.6,131c0,10.5,7.2,19.1,16,19.1H221c0,14.7,10,26.5,22.3,26.5h30.9c6.9,0,12.4,6.6,12.4,14.8
		s-5.6,14.8-12.4,14.8h-47.4c-7.2,0-13,6.9-13,15.4s5.8,15.4,13,15.4h10.1c11.1,0,20.1,11.1,20,24.3h135.6l-0.4-28.3h48.2
		c8.6,0,15.5-8.3,15.5-18.5s-7-18.5-15.5-18.5h-37.4c-7.9,0-14.3-7.6-14.3-17.1s6.4-17,14.3-17h3.5c11.6,0,21-11.2,21-25
		s-9.4-25-21-25H183.6C174.7,112,167.6,120.6,167.6,131"/>
</g>
<g>
	<defs>
		<rect id="SVGID_1_" x="87.8" y="101.3" width="494.7" height="160.2"/>
	</defs>
	<clipPath id="SVGID_2_">
		<use xlink:href="#SVGID_1_"  style="overflow:visible;"/>
	</clipPath>
	<g class="st2">
		<path class="st3" d="M234.6,165.5L234.6,165.5L234.6,165.5"/>
		<path class="st4" d="M463,234.1c-1.9,0.8-4.1-0.1-4.9-2c-0.8-1.9,0.1-4.1,2-4.9c1.9-0.8,4.1,0.1,4.9,2c0.2,0.5,0.3,0.9,0.3,1.4
			C465.3,232.2,464.4,233.5,463,234.1 M454,234.1c-1.9,0.8-4.1-0.1-4.9-2c-0.8-1.9,0.1-4.1,2-4.9c1.9-0.8,4.1,0.1,4.9,2
			c0.2,0.5,0.3,0.9,0.3,1.4C456.3,232.2,455.4,233.5,454,234.1 M445,234.1c-1.9,0.8-4.1-0.1-4.9-2c-0.8-1.9,0.1-4.1,2-4.9
			c1.9-0.8,4.1,0.1,4.9,2c0.2,0.5,0.3,0.9,0.3,1.4C447.3,232.2,446.4,233.5,445,234.1 M452.6,218c-9.8,0-17.7,5.7-17.7,12.7
			c0.1,3.3,1.8,6.4,4.5,8.4l0.5,0.4v5.2l4.8-2.7l0.5,0.2c2.4,0.8,4.9,1.2,7.4,1.2l0,0c9.8,0,17.7-5.7,17.7-12.7S462.3,218,452.6,218
			"/>
		<path class="st3" d="M462,229.6c-0.4-0.2-0.9-0.1-1.3,0.3c-0.4,0.5-0.4,1.2,0,1.6c0.5,0.4,1.2,0.4,1.6,0s0.4-1.2,0-1.6
			C462.3,229.7,462.1,229.6,462,229.6"/>
		<path class="st3" d="M453,229.6c-0.4-0.2-0.9-0.1-1.3,0.3c-0.4,0.5-0.4,1.2,0,1.6c0.5,0.4,1.2,0.4,1.6,0s0.4-1.2,0-1.6
			C453.3,229.7,453.1,229.6,453,229.6"/>
		<path class="st3" d="M386.8,189.6v60.3h3.8v-65.6c0-0.5-0.4-0.9-0.9-0.9l0,0h-9.8l6,4.8C386.5,188.4,386.8,188.9,386.8,189.6"/>
		<path class="st3" d="M282.8,189.6c0-0.6,0.4-1.2,0.9-1.4l6-4.8H280c-0.5,0-0.9,0.4-0.9,0.9v0v65.6h3.8L282.8,189.6z"/>
		<path class="st3" d="M385.2,253.1h-32v1.2c0,0.9-0.7,1.6-1.6,1.6H318c-0.9,0-1.6-0.7-1.6-1.6v-1.2H270l2.3,4.6H397l2.5-4.6H385.2z
			"/>
		<path class="st3" d="M309.9,222c0.6-0.7,1.6-0.8,2.3-0.2c0,0,0,0,0,0l8.3,6.8c0.7,0.6,0.8,1.6,0.2,2.3c-0.3,0.4-0.7,0.6-1.2,0.6
			c-0.4,0-0.7-0.1-1-0.4l-8.3-6.8C309.5,223.7,309.4,222.7,309.9,222 M343.6,233.4l17.3-14.2c0.7-0.6,1.7-0.5,2.3,0.2
			c0.6,0.7,0.5,1.7-0.2,2.3l0,0L345.6,236c-0.3,0.2-0.6,0.4-1,0.4c-0.9,0-1.6-0.7-1.6-1.6C343,234.3,343.3,233.8,343.6,233.4
			 M286.5,249.9h96.7v-57l-14.8,12L336,231.1c-0.6,0.5-1.4,0.5-2,0l-47.5-38.4L286.5,249.9z"/>
	</g>
</g>
<g>
	<polygon class="st3" points="371.5,198.2 380.2,191.2 371.5,191.2 	"/>
	<polygon class="st3" points="298.5,198.2 298.5,191.2 289.8,191.2 	"/>
	<polygon class="st3" points="324,159.8 345.5,159.8 334.7,151.3 	"/>
	<polygon class="st3" points="371.5,180.7 371.5,188 380.6,188 	"/>
	<polygon class="st3" points="298.5,188 298.5,180.4 289,188 	"/>
</g>
<g>
	<defs>
		<rect id="SVGID_3_" x="87.8" y="101.3" width="494.7" height="160.2"/>
	</defs>
	<clipPath id="SVGID_4_">
		<use xlink:href="#SVGID_3_"  style="overflow:visible;"/>
	</clipPath>
	<g class="st5">
		<path class="st6" d="M331.9,190.8c0-0.9,0.7-1.6,1.6-1.6h28.6c0.9,0,1.6,0.7,1.6,1.6c0,0.9-0.7,1.6-1.6,1.6h-28.6
			C332.6,192.4,331.9,191.7,331.9,190.8 M327.8,192.4h-20.9c-0.9,0-1.6-0.7-1.6-1.6c0-0.9,0.7-1.6,1.6-1.6h20.9
			c0.9,0,1.6,0.7,1.6,1.6S328.7,192.4,327.8,192.4C327.8,192.4,327.8,192.4,327.8,192.4 M306.7,182.2h33.1c0.9-0.1,1.6,0.6,1.7,1.5
			c0.1,0.9-0.6,1.6-1.5,1.7c-0.1,0-0.2,0-0.3,0h-33.1c-0.9,0.1-1.6-0.6-1.7-1.5c-0.1-0.9,0.6-1.6,1.5-1.7
			C306.6,182.2,306.6,182.2,306.7,182.2 M363.5,183.8c0,0.9-0.7,1.6-1.6,1.6h-16c-0.9,0.1-1.6-0.6-1.7-1.5c-0.1-0.9,0.6-1.6,1.5-1.7
			c0.1,0,0.2,0,0.3,0h16C362.8,182.2,363.5,182.9,363.5,183.8 M306.7,175.1h55.2c0.9-0.1,1.6,0.6,1.7,1.5c0.1,0.9-0.6,1.6-1.5,1.7
			c-0.1,0-0.2,0-0.3,0h-55.2c-0.9,0.1-1.6-0.6-1.7-1.5c-0.1-0.9,0.6-1.6,1.5-1.7C306.6,175.1,306.6,175.1,306.7,175.1 M306.7,167.4
			h20.9c0.9,0,1.6,0.7,1.6,1.6c0,0.9-0.7,1.6-1.6,1.6h-20.9c-0.9,0-1.6-0.7-1.6-1.6C305.1,168.1,305.9,167.4,306.7,167.4
			 M333.3,167.4h28.6c0.9,0,1.6,0.7,1.6,1.6c0,0.9-0.7,1.6-1.6,1.6h-28.6c-0.9,0-1.6-0.7-1.6-1.6
			C331.7,168.1,332.4,167.4,333.3,167.4 M368.3,200.4v-37.3h-66.6v37.3l33.3,26.9L368.3,200.4z"/>
		<path class="st7" d="M397,257.7H272.3l-2.3-4.6h46.4v1.2c0,0.9,0.7,1.6,1.6,1.6h33.6c0.9,0,1.6-0.7,1.6-1.6v-1.2h46.3L397,257.7z
			 M279,184.2c0-0.5,0.4-0.9,0.9-0.9l0,0h9.8l-6,4.8c-0.6,0.3-0.9,0.8-0.9,1.4v60.3H279V184.2z M298.5,180.4v7.6H289L298.5,180.4z
			 M289.8,191.2h8.7v7L289.8,191.2z M334,231.1c0.6,0.5,1.4,0.5,2,0l32.4-26.2l14.8-12v56.9h-96.7v-57.1L334,231.1z M301.7,163.1
			h66.5v37.3L335,227.3l-33.3-26.9L301.7,163.1z M334.7,151.3l10.7,8.6H324L334.7,151.3z M371.5,191.3h8.7l-8.7,7V191.3z
			 M371.5,180.8l9.1,7.3h-9.1V180.8z M389.7,183.4c0.5,0,0.9,0.4,0.9,0.9v0v65.6h-3.8v-60.4c0-0.6-0.4-1.2-0.9-1.4l-6-4.8
			L389.7,183.4z M402.2,249.9h-8.4v-65.7c0-2.3-1.9-4.1-4.1-4.1l0,0h-13.8l-4.4-3.5v-15.1c0-0.9-0.7-1.6-1.6-1.6h-19.3l-14.9-11.9
			c-0.6-0.5-1.4-0.5-2,0l-14.8,11.9h-18.8c-0.9,0-1.6,0.7-1.6,1.6v14.8l-4.8,3.9h-13.8c-2.3,0-4.1,1.9-4.1,4.1v0v65.6h-8.4
			c-0.6,0-1.1,0.3-1.4,0.8c-0.3,0.5-0.3,1.1-0.1,1.6l1.6,3.2l2.9,6h128.4l1.9-3.7l2.9-5.5c0.4-0.8,0.1-1.8-0.7-2.2
			c-0.2-0.1-0.5-0.2-0.8-0.2"/>
		<path class="st7" d="M344.6,236.3c0.4,0,0.7-0.1,1-0.4l17.3-14.2c0.7-0.6,0.8-1.6,0.2-2.3c-0.6-0.7-1.6-0.8-2.3-0.2l0,0
			l-17.3,14.2c-0.7,0.6-0.8,1.6-0.2,2.3C343.6,236.1,344.1,236.3,344.6,236.3"/>
		<path class="st7" d="M310.1,224.3l8.3,6.8c0.3,0.2,0.6,0.4,1,0.4c0.9,0,1.6-0.7,1.6-1.6c0-0.5-0.2-0.9-0.6-1.2l-8.3-6.8
			c-0.6-0.6-1.6-0.7-2.3,0c-0.6,0.6-0.7,1.6,0,2.3C309.9,224.1,310,224.2,310.1,224.3"/>
		<path class="st7" d="M306.7,170.6h20.9c0.9-0.1,1.5-0.8,1.5-1.7c-0.1-0.8-0.7-1.4-1.5-1.5h-20.9c-0.9-0.1-1.6,0.6-1.7,1.5
			c-0.1,0.9,0.6,1.6,1.5,1.7C306.6,170.6,306.6,170.6,306.7,170.6"/>
		<path class="st7" d="M333.3,170.6h28.6c0.9,0.1,1.6-0.6,1.7-1.5c0.1-0.9-0.6-1.6-1.5-1.7c-0.1,0-0.2,0-0.3,0h-28.6
			c-0.9,0.1-1.5,0.8-1.5,1.7C331.9,169.9,332.5,170.5,333.3,170.6"/>
		<path class="st7" d="M306.7,178.3h55.2c0.9,0.1,1.6-0.6,1.7-1.5c0.1-0.9-0.6-1.6-1.5-1.7c-0.1,0-0.2,0-0.3,0h-55.2
			c-0.9-0.1-1.6,0.6-1.7,1.5c-0.1,0.9,0.6,1.6,1.5,1.7C306.6,178.3,306.6,178.3,306.7,178.3"/>
		<path class="st7" d="M306.7,185.4h33.1c0.9,0.1,1.6-0.6,1.7-1.5c0.1-0.9-0.6-1.6-1.5-1.7c-0.1,0-0.2,0-0.3,0h-33.1
			c-0.9-0.1-1.6,0.6-1.7,1.5c-0.1,0.9,0.6,1.6,1.5,1.7C306.6,185.4,306.6,185.4,306.7,185.4"/>
		<path class="st7" d="M361.9,182.2h-16c-0.9-0.1-1.6,0.6-1.7,1.5c-0.1,0.9,0.6,1.6,1.5,1.7c0.1,0,0.2,0,0.3,0h16
			c0.9,0.1,1.6-0.6,1.7-1.5c0.1-0.9-0.6-1.6-1.5-1.7C362.1,182.2,362,182.2,361.9,182.2"/>
		<path class="st7" d="M327.8,189.3h-20.9c-0.9,0-1.6,0.7-1.6,1.6c0,0.9,0.7,1.6,1.6,1.6h20.9c0.9,0,1.6-0.7,1.6-1.6
			S328.7,189.3,327.8,189.3C327.8,189.3,327.8,189.3,327.8,189.3"/>
		<path class="st7" d="M363.7,190.8c0-0.9-0.7-1.6-1.6-1.6h-28.6c-0.9,0-1.6,0.7-1.6,1.6c0,0.9,0.7,1.6,1.6,1.6h28.6
			C363,192.4,363.7,191.7,363.7,190.8"/>
		<path class="st4" d="M213.1,149.8c0.4-1,1.5-1.5,2.5-1.1c0.2,0.1,0.4,0.2,0.6,0.4l16.8,15.2c0.1,0.1,0.2,0.2,0.3,0.3
			c0.8,0.5,1.8,0.4,2.5-0.2l6.4-5.8l10.4-9.4l0.2-0.1c0.3-0.2,0.6-0.3,0.9-0.4l0,0c0.7,0,1.3,0.3,1.6,0.8c0.1,0.1,0.1,0.2,0.2,0.3
			c0.3,0.7,0.1,1.6-0.5,2.1l-9,8.1l5.5,4.8l3.5,3c0.6,0.5,0.8,1.3,0.5,2c-0.1,0.2-0.1,0.3-0.2,0.5l-0.1,0.1l-0.2,0.2
			c-0.3,0.3-0.7,0.4-1.1,0.4c-0.3,0-0.6,0-0.8-0.1c-0.2-0.1-0.4-0.2-0.6-0.3l-9.3-8.1l-5,4.6c-0.3,0.2-0.6,0.5-0.9,0.6l-0.1,0.1
			h-0.1c-2.2,1.2-4.8,0.9-6.7-0.8l-5-4.5l-9.3,8.1c-0.1,0.1-0.3,0.2-0.4,0.3c-0.3,0.1-0.6,0.2-0.9,0.2c-0.3,0-0.6-0.1-0.9-0.3
			c-0.1-0.1-0.3-0.2-0.4-0.3c-0.3-0.4-0.5-0.9-0.4-1.4c0-0.1,0-0.2,0-0.4c0.1-0.3,0.3-0.6,0.5-0.9l0,0l8.9-7.8l-1.4-1.3l-7.5-6.8
			c-0.6-0.5-0.8-1.3-0.5-2 M210,173c0,0.4,0.1,0.8,0.4,1.1c0.4,0.5,0.9,0.8,1.5,0.8h44.8c1,0,1.8-0.8,1.9-1.8c0,0,0-0.1,0-0.1v-26.2
			c0-0.8-0.4-1.4-1.1-1.7c-0.2-0.1-0.5-0.1-0.7-0.1H212c-0.3,0-0.5,0-0.7,0.1c-0.6,0.2-1,0.7-1.1,1.4c0,0.1,0,0.3,0,0.4L210,173z"/>
		<path class="st8" d="M216.2,149c-0.8-0.7-2-0.6-2.7,0.2c-0.2,0.2-0.3,0.4-0.4,0.6c-0.3,0.7,0,1.5,0.5,2l7.5,6.8l1.4,1.3l0,0
			l-8.9,7.8l0,0c-0.3,0.2-0.4,0.5-0.5,0.9c0,0.1,0,0.2,0,0.4c0,0.5,0.1,1,0.4,1.4c0.1,0.1,0.2,0.2,0.4,0.3c0.3,0.2,0.6,0.3,0.9,0.3
			c0.3,0,0.7,0,0.9-0.2c0.1-0.1,0.3-0.2,0.4-0.3l9.3-8.1l5,4.5c1.8,1.6,4.5,2,6.7,0.8h0.1l0.1-0.1c0.3-0.2,0.6-0.4,0.9-0.6l5-4.6
			l0,0l9.3,8.1c0.2,0.1,0.4,0.3,0.6,0.3c0.3,0.1,0.5,0.1,0.8,0.1c0.4,0,0.8-0.2,1.1-0.4l0.2-0.2l0.1-0.1c0.1-0.1,0.2-0.3,0.2-0.5
			c0.3-0.7,0.1-1.5-0.5-2l-3.5-3l-5.5-4.8l9-8.1c0.6-0.5,0.8-1.4,0.5-2.1c-0.1-0.1-0.1-0.2-0.2-0.3c-0.4-0.5-1-0.9-1.6-0.8l0,0
			c-0.3,0-0.7,0.1-0.9,0.4l-0.2,0.1l-10.4,9.4l-6.4,5.8c-0.7,0.6-1.7,0.8-2.5,0.3c-0.1-0.1-0.2-0.2-0.3-0.3L216.2,149z"/>
		<path class="st9" d="M214.6,150c0-0.1,0-0.2,0-0.3c0.1-0.4,0.4-0.8,0.8-1c0.2-0.1,0.4-0.1,0.6-0.1H249c0.2,0,0.4,0,0.6,0.1
			c0.5,0.2,0.8,0.7,0.8,1.3v19.3c0,0.7-0.6,1.4-1.3,1.4c0,0,0,0-0.1,0h-33c-0.4,0-0.9-0.2-1.1-0.6c-0.2-0.2-0.3-0.5-0.3-0.8
			L214.6,150z M211.8,150v19.3c0,2.3,1.9,4.1,4.1,4.1h33.1c2.3,0,4.1-1.8,4.1-4.1V150c0-2.3-1.9-4.1-4.1-4.1h-33.1
			C213.7,145.9,211.8,147.7,211.8,150"/>
		<path class="st9" d="M250.4,150v19.3c0,0.7-0.6,1.4-1.3,1.4c0,0,0,0-0.1,0H216c-0.4,0-0.9-0.2-1.1-0.6c0.3,0.4,0.7,0.6,1.1,0.6
			h33.1c0.7,0,1.4-0.6,1.4-1.3c0,0,0,0,0-0.1L250.4,150c0.1-0.6-0.3-1.1-0.8-1.3C250.2,148.9,250.5,149.4,250.4,150"/>
		<path class="st9" d="M215.4,148.7c-0.4,0.2-0.7,0.6-0.8,1C214.7,149.3,215,148.9,215.4,148.7"/>
		<path class="st4" d="M446.6,173.1h-12c-0.6,0-1.1-0.5-1.1-1.1c0-2.5,1.4-4.9,3.6-6.1c-1.4-1.1-2.2-2.7-2.2-4.4
			c0-3.2,2.5-5.7,5.7-5.8s5.7,2.5,5.8,5.7c0,1.7-0.8,3.4-2.1,4.5c2.2,1.3,3.5,3.6,3.5,6.1C447.6,172.6,447.1,173.1,446.6,173.1
			 M424,185.4h31.8v-41.9H424V185.4z"/>
		<path class="st3" d="M444.2,165.9L444.2,165.9c2.4-2,2.8-5.6,0.8-8c-2-2.4-5.6-2.8-8-0.8c-1.3,1.1-2.1,2.7-2.1,4.4
			c0,1.7,0.8,3.3,2.2,4.4c-2.2,1.3-3.6,3.6-3.6,6.1c0,0.6,0.5,1.1,1.1,1.1h12c0.6,0,1.1-0.5,1.1-1.1
			C447.7,169.5,446.4,167.2,444.2,165.9z M437.1,161.5C437.1,161.5,437.1,161.5,437.1,161.5c0,1.9,1.6,3.4,3.5,3.5
			c1.9,0,3.5-1.6,3.5-3.5c0,0,0,0,0,0c0,1.9-1.6,3.5-3.5,3.5S437.1,163.4,437.1,161.5z M439.6,167.2c-0.2,0-0.4,0.1-0.6,0.1
			C439.2,167.3,439.4,167.3,439.6,167.2z M440.2,167.2c-0.1,0-0.2,0-0.3,0C440,167.2,440.1,167.2,440.2,167.2z M441.5,167.2
			c0.1,0,0.1,0,0.2,0c0.1,0,0.3,0.1,0.4,0.1C441.9,167.3,441.7,167.3,441.5,167.2z M442.9,167.7c0.2,0.1,0.4,0.3,0.6,0.4
			C443.3,168,443.1,167.9,442.9,167.7z"/>
		<path class="st4" d="M223.8,231.4c-0.9-0.6-2-0.7-3-0.5c-0.7,0.3-1.4,0.8-1.9,1.4c-1.3,1.4-2.4,1.7-3.4,1.6
			c-1.2-0.2-2.2-0.8-3-1.7l-3.2-3.2c-0.9-0.8-1.5-1.8-1.7-3c-0.1-1,0.2-2.1,1.6-3.4c0.6-0.5,1.1-1.1,1.4-1.9c0.3-1,0.1-2.1-0.5-3
			c-1.6-1.9-3-4.1-4.4-5.8c-0.9-0.9-2.2-1.3-3.4-1c-0.9,0.3-1.7,0.9-2.4,1.6c-3.6,3.6-5.1,7.2-4.4,10.9s3.2,7.2,7,11l4.5,4.5
			c3.8,3.8,7.3,6.4,11,7s7.4-0.9,10.9-4.4c0.7-0.7,1.3-1.5,1.6-2.4c0.3-1.2,0-2.5-0.9-3.4C228,234.4,225.8,233,223.8,231.4"/>
		<path class="st4" d="M214,207c-0.8,0-1.4,0.6-1.4,1.4c0.1,0.7,0.7,1.3,1.4,1.3c10.3,0,18.7,8.3,18.7,18.7c0,0,0,0,0,0
			c-0.1,0.8,0.5,1.4,1.2,1.5c0.8,0.1,1.4-0.5,1.5-1.2c0-0.1,0-0.2,0-0.2C235.4,216.6,225.8,207,214,207"/>
		<path class="st4" d="M214,215.2c7.3,0,13.2,5.9,13.2,13.2c0,0,0,0,0,0.1c0,0.8,0.6,1.4,1.4,1.4c0.8,0,1.4-0.6,1.4-1.4l0,0
			c0-8.8-7.2-16-16-16c-0.8,0-1.4,0.7-1.4,1.4C212.6,214.6,213.2,215.2,214,215.2"/>
		<path class="st4" d="M452.6,243.3L452.6,243.3c-2.5,0-5-0.4-7.4-1.2l-0.5-0.2l-4.8,2.7v-5.2l-0.5-0.4c-2.7-2-4.4-5-4.5-8.4
			c0-7,8-12.7,17.8-12.7s17.7,5.7,17.7,12.7S462.3,243.3,452.6,243.3 M452.6,215.4L452.6,215.4c-11.2,0-20.3,6.9-20.3,15.3
			c0.1,3.9,1.9,7.6,4.9,10v8.4l7.7-4.2c2.5,0.8,5.1,1.1,7.7,1.1c11.2,0,20.3-6.9,20.3-15.3S463.8,215.4,452.6,215.4"/>
	</g>
</g>
<g>
	<defs>
		<rect id="SVGID_5_" x="87.8" y="101.3" width="494.7" height="160.2"/>
	</defs>
	<clipPath id="SVGID_6_">
		<use xlink:href="#SVGID_5_"  style="overflow:visible;"/>
	</clipPath>
	<g class="st10">
		<path class="st3" d="M452.6,226.9c-2.1,0-3.8,1.7-3.8,3.7c0,2.1,1.7,3.8,3.7,3.8c2.1,0,3.8-1.7,3.8-3.7c0,0,0,0,0,0
			C456.3,228.6,454.7,226.9,452.6,226.9"/>
	</g>
</g>
<g>
	<defs>
		<rect id="SVGID_7_" x="87.8" y="101.3" width="494.7" height="160.2"/>
	</defs>
	<clipPath id="SVGID_8_">
		<use xlink:href="#SVGID_7_"  style="overflow:visible;"/>
	</clipPath>
	<g class="st11">
		<path class="st3" d="M461.6,226.9c-2.1,0-3.8,1.7-3.8,3.7c0,2.1,1.7,3.8,3.7,3.8c2.1,0,3.8-1.7,3.8-3.7c0,0,0,0,0,0
			C465.3,228.6,463.6,226.9,461.6,226.9"/>
	</g>
</g>
<g>
	<defs>
		<rect id="SVGID_9_" x="87.8" y="101.3" width="494.7" height="160.2"/>
	</defs>
	<clipPath id="SVGID_10_">
		<use xlink:href="#SVGID_9_"  style="overflow:visible;"/>
	</clipPath>
	<g class="st12">
		<path class="st3" d="M443.6,226.9c-2.1,0-3.8,1.7-3.8,3.7c0,2.1,1.7,3.8,3.7,3.8c2.1,0,3.8-1.7,3.8-3.7c0,0,0,0,0,0
			C447.4,228.6,445.7,226.9,443.6,226.9C443.6,226.9,443.6,226.9,443.6,226.9"/>
	</g>
</g>
<g>
	<defs>
		<rect id="SVGID_11_" x="87.8" y="101.3" width="494.7" height="160.2"/>
	</defs>
	<clipPath id="SVGID_12_">
		<use xlink:href="#SVGID_11_"  style="overflow:visible;"/>
	</clipPath>
	<g class="st13">
		<path class="st7" d="M198.2,158.4c0-0.4-0.3-0.7-0.7-0.7c0,0,0,0,0,0h-20.2c-0.4,0-0.7,0.3-0.7,0.7c0,0.4,0.3,0.7,0.7,0.7
			c0,0,0,0,0,0h20.2C197.9,159.1,198.2,158.8,198.2,158.4C198.2,158.4,198.2,158.4,198.2,158.4"/>
		<path class="st7" d="M204.9,152.5c0-0.4-0.3-0.7-0.7-0.7c0,0,0,0,0,0h-18.8c-0.4,0-0.7,0.3-0.7,0.7c0,0.4,0.3,0.7,0.7,0.7
			c0,0,0,0,0,0h18.8C204.6,153.3,204.9,152.9,204.9,152.5C204.9,152.5,204.9,152.5,204.9,152.5"/>
		<path class="st7" d="M201.4,164.8c0-0.4-0.3-0.7-0.7-0.7c0,0,0,0,0,0h-18.3c-0.4,0-0.7,0.3-0.7,0.7c0,0.4,0.3,0.7,0.7,0.7h18.3
			C201.1,165.5,201.4,165.2,201.4,164.8C201.4,164.7,201.4,164.7,201.4,164.8"/>
		<path class="st7" d="M486.6,230.4c0,0.4,0.3,0.7,0.7,0.8h20.2c0.4,0,0.7-0.3,0.8-0.8c0-0.4-0.3-0.7-0.8-0.7h-20.2
			C487,229.6,486.6,230,486.6,230.4"/>
		<path class="st7" d="M479.9,236.3c0,0.4,0.3,0.7,0.7,0.8h18.8c0.4,0,0.7-0.3,0.7-0.8c0-0.4-0.3-0.7-0.7-0.7h-18.8
			C480.3,235.5,479.9,235.8,479.9,236.3"/>
		<path class="st7" d="M483.4,224.1c0,0.4,0.3,0.7,0.7,0.7h18.2c0.4,0,0.7-0.3,0.7-0.7c0-0.4-0.3-0.7-0.7-0.8h-18.2
			C483.8,223.3,483.4,223.6,483.4,224.1"/>
		<path class="st14" d="M270.4,109.8h-3.5c-0.3,0-0.6-0.2-0.7-0.5c0-0.3,0.2-0.6,0.5-0.7c0.1,0,0.1,0,0.2,0h3.5
			c0.3,0,0.6,0.2,0.7,0.5c0,0.3-0.2,0.6-0.5,0.7C270.5,109.8,270.4,109.8,270.4,109.8"/>
		<path class="st14" d="M268.6,111.5c-0.3,0-0.6-0.3-0.6-0.6c0,0,0,0,0,0v-3.5c0-0.3,0.3-0.6,0.7-0.5c0.3,0,0.5,0.3,0.5,0.5v3.5
			C269.2,111.3,269,111.5,268.6,111.5L268.6,111.5"/>
		<path class="st3" d="M281.2,118.4h-13.3l-6.3-12.2c-0.3-0.7-0.1-1.5,0.6-1.9c0.2-0.1,0.4-0.1,0.6-0.1h4.6c0.4,0,0.7,0.2,1,0.4
			L281.2,118.4z"/>
		<path class="st3" d="M281.2,118.4h-13.3l-6.3-12.2c-0.3-0.7-0.1-1.5,0.6-1.9c0.2-0.1,0.4-0.1,0.6-0.1h4.6c0.4,0,0.7,0.2,1,0.4
			L281.2,118.4z"/>
		<path class="st7" d="M268.5,117.2h10l-10.9-11.8c0,0-0.1-0.1-0.2-0.1h-4.6c-0.1,0-0.1,0-0.2,0.1c0,0.1,0,0.2,0,0.2L268.5,117.2z
			 M283.8,119.6h-16.7l-6.6-12.9c-0.6-1.3-0.1-2.8,1.1-3.5c0.4-0.2,0.7-0.3,1.1-0.3h4.6c0.7,0,1.4,0.3,1.9,0.8L283.8,119.6z"/>
		<path class="st3" d="M327.8,112h-0.1c-0.9-3-4-4.7-6.9-3.8c-0.5,0.2-1,0.4-1.5,0.7c-0.6-4.2-4.5-7-8.7-6.4
			c-2.9,0.4-5.3,2.5-6.2,5.3c-2.8-0.8-5.6,0.8-6.4,3.6c-0.1,0.2-0.1,0.4-0.1,0.6H297c-2.2,0-3.9,1.8-3.9,3.9v0.3
			c0,2.2,1.8,3.9,3.9,3.9h30.8c2.2,0,3.9-1.8,3.9-3.9V116C331.7,113.8,329.9,112.1,327.8,112"/>
		<path class="st7" d="M328.5,111c-1.4-3.3-5.1-4.9-8.4-3.7c-0.8-2.3-2.5-4.2-4.7-5.2c-4.4-2-9.7,0-11.6,4.4c-3-0.3-5.8,1.5-6.7,4.4
			c-1.8,0-3.4,1-4.3,2.5l-0.1-0.1c-1,1.8-0.4,4.1,1.4,5.1l1.2-1.8c-0.7-0.4-1-1.3-0.7-2.1l0.1,0.1c0.5-0.8,1.4-1.4,2.4-1.4h1.8
			l0.1-1c0-0.2,0.1-0.4,0.1-0.6c0.6-2.1,2.8-3.3,5-2.7l1.1,0.3l0.3-1.1c0.7-2.4,2.8-4.1,5.2-4.5c3.5-0.5,6.8,1.9,7.4,5.4l0.3,1.8
			l1.5-1c0.7-0.5,1.5-0.7,2.4-0.7c2,0,3.7,1.3,4.2,3.2l0.4,0.8h0.9c1.5,0,2.8,1.2,2.8,2.8v0.2c-0.1,3.3-3.7,3.6-5.2,3.6l1.2,1.8
			l1.2-0.1c2.8-0.2,5-2.4,5.1-5.2V116C332.8,113.5,331,111.4,328.5,111z"/>
		<path class="st3" d="M327.6,123.2h-1.3c-1.2-3.2-4.2-5.3-7.6-5.3h-54.4c0,7.5,6.1,13.6,13.6,13.6c0,0,0,0,0,0h49.8
			c2.1,0,3.8-1.7,3.8-3.8v-0.8C331.4,124.8,329.7,123.2,327.6,123.2"/>
		<path class="st6" d="M327.6,128.2"/>
		<path class="st7" d="M265.5,119c0.6,6.4,6,11.3,12.4,11.3h49.8c1.4,0,2.6-1.2,2.6-2.6v-0.8c0-1.4-1.2-2.6-2.6-2.6h-2.1l-0.3-0.8
			c-1-2.7-3.6-4.6-6.5-4.6H265.5z M327.6,132.6h-49.8c-8.2,0-14.8-6.6-14.8-14.8v-1.2h55.6c3.6,0,6.9,2.1,8.4,5.3h0.5
			c2.7,0,4.9,2.2,4.9,4.9v0.8C332.5,130.4,330.3,132.6,327.6,132.6C327.6,132.6,327.6,132.6,327.6,132.6"/>
		<path class="st7" d="M264.1,118.7c-0.4,0-0.7,0.3-0.7,0.7v0.7c0,0.4,0.3,0.7,0.7,0.7h15.8c0.4,0,0.7-0.3,0.7-0.7v-0.7
			c0-0.4-0.3-0.7-0.7-0.7 M279.9,123h-15.8c-1.7,0-3-1.3-3-3v-0.7c0-1.7,1.3-3,3-3h15.8c1.7,0,3,1.3,3,3v0.7
			C282.9,121.7,281.5,123,279.9,123"/>
		<path class="st7" d="M291.1,129.1c-0.4,0-0.7,0.3-0.7,0.6v1.5c0,0.4,0.3,0.7,0.7,0.7l0,0h19.4c0.4,0,0.7-0.3,0.7-0.6c0,0,0,0,0,0
			v-1.5c0-0.4-0.3-0.6-0.6-0.6H291.1z M310.5,134.2h-19.4c-1.7,0-3-1.3-3-3v-1.5c0-1.7,1.3-3,3-3h19.4c1.7,0,3,1.3,3,3v1.5
			C313.5,132.8,312.2,134.2,310.5,134.2"/>
	</g>
</g>
<g>
	<rect x="315.3" y="121" class="st15" width="6.8" height="2.3"/>
	<rect x="307.4" y="121" class="st15" width="3.4" height="2.3"/>
	<rect x="301.9" y="121" class="st15" width="3.4" height="2.3"/>
	<rect x="296.4" y="121" class="st15" width="3.4" height="2.3"/>
	<rect x="290.9" y="121" class="st15" width="3.4" height="2.3"/>
	<rect x="285.4" y="121" class="st15" width="3.4" height="2.3"/>
</g>
<g>
	<defs>
		<rect id="SVGID_13_" x="87.8" y="101.3" width="494.7" height="160.2"/>
	</defs>
	<clipPath id="SVGID_14_">
		<use xlink:href="#SVGID_13_"  style="overflow:visible;"/>
	</clipPath>
	<g class="st16">
		<path class="st3" d="M403.9,128.3H403l-0.2-0.7c-0.6-2.2-3-3.5-5.2-2.9c-0.4,0.1-0.8,0.3-1.1,0.5l-1.2,0.8l-0.2-1.4
			c-0.5-3.4-3.6-5.7-7-5.2c-2.4,0.3-4.3,2-5,4.3l-0.3,0.9l-0.9-0.2c-2.1-0.6-4.2,0.6-4.8,2.7c0,0.2-0.1,0.3-0.1,0.5l-0.1,0.8h-1.6
			c-1.5,0-2.7,1.2-2.7,2.7v0.3c0,1.5,1.2,2.7,2.7,2.7h28.7c1.5,0,2.7-1.2,2.7-2.7c0,0,0,0,0,0V131
			C406.6,129.5,405.4,128.3,403.9,128.3L403.9,128.3"/>
		<path class="st7" d="M406.6,131.3c0,1.5-1.2,2.7-2.7,2.7l0,0h-28.6c-1.5,0-2.7-1.2-2.7-2.7V131c0-1.5,1.2-2.7,2.7-2.7h1.6l0.1-0.8
			c0.3-2.1,2.3-3.6,4.4-3.3c0.2,0,0.3,0.1,0.5,0.1l0.9,0.2l0.3-0.9c1-3.3,4.4-5.1,7.7-4.1c2.3,0.7,4,2.7,4.3,5l0.2,1.4l1.2-0.8
			c2-1.3,4.6-0.7,5.9,1.2c0.2,0.4,0.4,0.7,0.5,1.1l0.2,0.7h0.9c1.5,0,2.7,1.2,2.7,2.7c0,0,0,0,0,0L406.6,131.3z M404.4,126.4
			c-1-2.3-3.2-3.8-5.7-3.8c-0.7,0-1.5,0.1-2.1,0.4c-1.4-4.2-5.9-6.6-10.1-5.2c-2.2,0.7-4,2.4-4.9,4.5c-2.8-0.3-5.4,1.4-6.2,4.1l0,0
			c-2.5,0-4.6,2.1-4.6,4.6v0.3c0,2.5,2.1,4.6,4.6,4.6l0,0h28.6c2.5,0,4.6-2.1,4.6-4.6V131C408.5,128.7,406.7,126.7,404.4,126.4"/>
		<path class="st3" d="M506.1,175.2h-0.5l-0.1-0.4c-0.4-1.4-1.8-2.2-3.2-1.8c-0.3,0.1-0.5,0.2-0.7,0.3l-0.8,0.5l-0.1-0.9
			c-0.3-2.1-2.3-3.5-4.3-3.2c-1.4,0.2-2.6,1.2-3,2.6l-0.2,0.5l-0.5-0.1c-1.3-0.4-2.6,0.4-2.9,1.7c0,0.1-0.1,0.2-0.1,0.3l-0.1,0.5h-1
			c-0.9,0-1.7,0.7-1.7,1.7l0,0v0.1c0,0.9,0.7,1.7,1.7,1.7l0,0h17.6c0.9,0,1.7-0.7,1.7-1.7l0,0v-0.2
			C507.7,175.9,507,175.2,506.1,175.2L506.1,175.2"/>
		<path class="st7" d="M507.7,177c0,0.9-0.7,1.7-1.7,1.7l0,0h-17.6c-0.9,0-1.7-0.7-1.7-1.7l0,0v-0.2c0-0.9,0.7-1.7,1.7-1.7l0,0h1
			l0.1-0.5c0.2-1.3,1.4-2.2,2.7-2.1c0.1,0,0.2,0,0.3,0.1l0.5,0.1l0.2-0.5c0.6-2,2.8-3.1,4.8-2.5c1.4,0.4,2.4,1.6,2.6,3l0.1,0.9
			l0.8-0.5c1.2-0.8,2.8-0.4,3.6,0.8c0.1,0.2,0.3,0.5,0.3,0.7l0.1,0.4h0.5c0.9,0,1.7,0.7,1.7,1.7l0,0L507.7,177z M506.4,174
			c-0.6-1.4-2-2.3-3.5-2.3c-0.5,0-0.9,0.1-1.3,0.2c-0.9-2.6-3.8-4-6.4-3.1c-1.3,0.4-2.3,1.4-2.9,2.6c-1.7-0.2-3.3,0.9-3.8,2.5l0,0
			c-1.6,0-2.8,1.3-2.8,2.8v0.2c0,1.6,1.3,2.8,2.8,2.8h17.6c1.6,0,2.8-1.3,2.8-2.8v-0.2C508.9,175.4,507.8,174.2,506.4,174"/>
		<path class="st3" d="M224.3,113h-0.6l-0.1-0.5c-0.4-1.2-1.5-2-2.7-2.1c-0.5,0-1.1,0.2-1.5,0.4l-0.8,0.5l-0.1-1
			c-0.4-2.2-2.5-3.8-4.7-3.4c-1.5,0.2-2.8,1.3-3.3,2.8l-0.2,0.6l-0.6-0.2c-1.4-0.4-2.8,0.4-3.2,1.8c0,0.1-0.1,0.2-0.1,0.3l-0.1,0.5
			h-1.1c-1,0-1.8,0.8-1.8,1.8v0.2c0,1,0.8,1.8,1.8,1.8h19.2c1,0,1.8-0.8,1.8-1.8v-0.2C226.1,113.8,225.3,113,224.3,113"/>
		<path class="st7" d="M226.1,115c0,1-0.8,1.8-1.8,1.8h-19.2c-1,0-1.8-0.8-1.8-1.8v-0.2c0-1,0.8-1.8,1.8-1.8h1.1l0.1-0.5
			c0.2-1.4,1.5-2.4,2.9-2.2c0.1,0,0.2,0,0.3,0.1l0.6,0.2l0.2-0.6c0.7-2.2,3-3.4,5.2-2.7c1.5,0.5,2.6,1.7,2.8,3.3l0.1,1l0.8-0.5
			c0.5-0.3,1-0.5,1.5-0.4c1.3,0,2.4,0.8,2.7,2.1l0.1,0.5h0.6c1,0,1.8,0.8,1.8,1.8L226.1,115z M224.6,111.8c-0.9-2-3.2-3-5.2-2.3
			c-0.9-2.8-4-4.4-6.8-3.5c-1.5,0.5-2.7,1.6-3.3,3c-1.9-0.2-3.6,0.9-4.2,2.7l0,0c-1.7,0-3.1,1.4-3.1,3.1v0.2c0,1.7,1.4,3.1,3.1,3.1
			h19.2c1.7,0,3.1-1.4,3.1-3.1v-0.2C227.4,113.3,226.2,112,224.6,111.8"/>
		<path class="st4" d="M454.5,184.2H425v-7.9h2.4c0.7,0,1.4-0.6,1.4-1.3c0-0.7-0.6-1.4-1.3-1.4c0,0,0,0,0,0H425v-7.9h2.4
			c0.7,0,1.4-0.6,1.4-1.3c0-0.7-0.6-1.4-1.3-1.4c0,0,0,0,0,0H425v-7.9h2.4c0.7,0,1.4-0.6,1.4-1.3c0-0.7-0.6-1.4-1.3-1.4c0,0,0,0,0,0
			H425v-7.9h29.5L454.5,184.2z M457.2,185.5v-42.3c0-0.7-0.6-1.3-1.4-1.4h-32.2c-0.7,0-1.4,0.6-1.4,1.3v0v9.3h-1.9
			c-0.7,0-1.3,0.6-1.3,1.4c0,0.7,0.6,1.3,1.3,1.3h1.9v7.9h-1.9c-0.7,0-1.3,0.6-1.3,1.4c0,0.7,0.6,1.3,1.3,1.3h1.9v7.9h-1.9
			c-0.7,0-1.4,0.6-1.4,1.3c0,0.7,0.6,1.4,1.3,1.4c0,0,0,0,0,0h1.9v9.2c0,0.7,0.6,1.4,1.4,1.4l0,0h32.2
			C456.6,186.8,457.2,186.2,457.2,185.5"/>
	</g>
</g>
</svg>
