<?xml version="1.0" encoding="utf-8"?>
<!-- Generator: Adobe Illustrator 21.0.0, SVG Export Plug-In . SVG Version: 6.00 Build 0)  -->
<svg version="1.1" id="Capa_10" xmlns="http://www.w3.org/2000/svg" xmlns:xlink="http://www.w3.org/1999/xlink" x="0px" y="0px"
	 viewBox="0 0 1000 1000" style="enable-background:new 0 0 1000 1000;" xml:space="preserve">
<style type="text/css">
	.st0{fill:#FFFFFF;}
</style>
<g id="A">
	<path class="st0" d="M904.2,795.5H603.6c-8.9,0-16-7.2-16-16V609.8c0-8.9,7.2-16,16-16h59.5c16.3,0,26.5-17.6,18.3-31.7
		l-98.9-171.2c-8.1-14.1-28.5-14.1-36.6,0l-93.3,161.6l-1.5,2.6l-4,7c0,0.1-0.1,0.2-0.1,0.3c0,0,0,0,0,0c-3.3,3-7.7,4.8-12.5,4.8
		H313.3c-10.3,0-18.6-8.3-18.6-18.6l0.2-111.8c0-7.9,2.1-15.7,6.1-22.6L492.5,82.3c33.3-57.8,116.7-57.8,150.1,0l336.7,583.2
		C1012.6,723.3,970.9,795.5,904.2,795.5z"/>
</g>
<g id="Capa_12">
</g>
<path class="st0" d="M120.5,963.9H62.2c-4.7,0-8.5-3.8-8.5-8.5v-58.3c0-4.7,3.8-8.5,8.5-8.5h58.3c4.7,0,8.5,3.8,8.5,8.5v58.3
	C129,960.1,125.2,963.9,120.5,963.9z"/>
<path class="st0" d="M158.6,736H50c-8.3,0-15-6.7-15-15V612.4c0-8.3,6.7-15,15-15h108.6c8.3,0,15,6.7,15,15V721
	C173.6,729.3,166.9,736,158.6,736z"/>
<path class="st0" d="M295.5,702.2h-82c-6.6,0-12-5.4-12-12v-82c0-6.6,5.4-12,12-12h82c6.6,0,12,5.4,12,12v82
	C307.5,696.9,302.1,702.2,295.5,702.2z"/>
<path class="st0" d="M295.3,802.4h-50.2c-6.7,0-12.2-5.5-12.2-12.2V740c0-6.7,5.5-12.2,12.2-12.2h50.2c6.7,0,12.2,5.5,12.2,12.2
	v50.2C307.5,796.9,302,802.4,295.3,802.4z"/>
<path class="st0" d="M525,800.1H358.9c-11,0-20-9-20-20V614c0-11,9-20,20-20H525c11,0,20,9,20,20v166.1
	C545,791.1,536.1,800.1,525,800.1z"/>
<path class="st0" d="M188.4,861.8h-75c-6.6,0-12-5.4-12-12v-75c0-6.6,5.4-12,12-12h75c6.6,0,12,5.4,12,12v75
	C200.4,856.4,195,861.8,188.4,861.8z"/>
<path class="st0" d="M249.6,570.3h-99.2c-8.3,0-15-6.7-15-15v-99.2c0-8.3,6.7-15,15-15h99.2c8.3,0,15,6.7,15,15v99.2
	C264.6,563.6,257.9,570.3,249.6,570.3z"/>
<path class="st0" d="M451.9,429.5v119.3c0,1.3-0.1,2.6-0.4,3.9c-0.8,3.8-2.8,7.2-5.6,9.7c0,0,0,0,0,0c-3.3,3-7.6,4.8-12.3,4.8H314.2
	c-10.1,0-18.4-8.2-18.4-18.4V429.5c0-1,0.1-1.9,0.2-2.8c0,0,0,0,0,0c0.7-4.6,3.2-8.7,6.7-11.5c3.1-2.5,7.1-4,11.5-4h119.3
	C443.7,411.1,451.9,419.4,451.9,429.5z"/>
</svg>
