<?xml version="1.0" encoding="utf-8"?>
<!-- Generator: Adobe Illustrator 21.0.0, SVG Export Plug-In . SVG Version: 6.00 Build 0)  -->
<svg version="1.1" id="A" xmlns="http://www.w3.org/2000/svg" xmlns:xlink="http://www.w3.org/1999/xlink" x="0px" y="0px"
	 viewBox="0 0 1000 1000" style="enable-background:new 0 0 1000 1000;" xml:space="preserve">
<style type="text/css">
	.st0{fill:#FCFCFC;}
	.st1{fill:#FFFFFF;}
</style>
<path id="line-3" class="st0" d="M327.8,340.5c-4,6.9-8,13.9-12.1,20.9c-3,5.1-8.4,8.3-14.3,8.3H178.2c-14.3,0-26.8-10.8-27.8-25.1
	c-0.5-8.2,2.6-15.6,7.8-20.9c4.9-4.9,11.6-7.9,19.1-7.9h136.1C326.2,315.8,334.1,329.5,327.8,340.5z"/>
<path id="line-2" class="st0" d="M383.2,244.3c-4.4,7.6-8.8,15.4-13.4,23.3c-3,5.1-8.4,8.3-14.3,8.3H34.1c-14.9,0-27-12.1-27-27
	v-2.3c0-14.9,12.1-27,27-27h334.8C381.6,219.5,389.6,233.3,383.2,244.3z"/>
<path id="line-1" class="st0" d="M441.7,142.8c-4.6,8-9.6,16.7-15.1,26.1c-3,5.1-8.4,8.3-14.4,8.3c-44,0-226.6,0-278.7,0
	c-14.3,0-26.8-10.8-27.7-25.1c-0.5-8.2,2.6-15.6,7.8-20.9c4.9-4.9,11.6-7.9,19.1-7.9l297.7,0C440.4,123.3,446.7,134.1,441.7,142.8z"
	/>
<path class="st1" d="M703,382.4L411.2,887.7c-5.1,8.8-14.5,14.3-24.7,14.3H123.4c-22,0-35.7-23.8-24.7-42.8L522,126
	c11-19,38.5-19,49.5,0L703,353.8C708.1,362.6,708.1,373.5,703,382.4z"/>
<path class="st1" d="M973.3,902H705.8c-100.4,0-163.1-108.7-112.9-195.6l133.7-231.7c10.3-17.8,36-17.8,46.2,0L996.4,862
	C1006.7,879.8,993.8,902,973.3,902z"/>
</svg>
